<svg xmlns="http://www.w3.org/2000/svg" viewBox="0 0 2400 2400" width="2400" height="2400">
	<style>
		tspan { white-space:pre }
		.shp0 { fill: #212121 } 
		.shp1 { fill: #d32f2f } 
		.shp2 { fill: #ff8f00 } 
	</style>
	<path id="Background" fill-rule="evenodd" class="shp0" d="M1800 0C2131.8 0 2400 268.2 2400 600L2400 2400L600 2400C268.2 2400 0 2131.8 0 1800C0 1276.47 0 600 0 600C0 268.2 268.2 0 600 0L1800 0Z" />
	<path id="Arc" fill-rule="evenodd" class="shp1" d="M240 1200C240 669.12 669.12 240 1200 240C1502.71 240 1772.33 379.52 1948.18 597.87C1796.46 501.06 1616.13 445 1422.5 445C881.94 445 445 881.94 445 1422.5C445 1616.13 501.06 1796.46 597.87 1948.18C379.52 1772.33 240 1502.71 240 1200Z" />
	<g id="Cat">
		<path id="Tail" class="shp2" d="M2087.41 1555.06C2018.38 1573.55 1931.17 1471.28 1892.31 1326.26C1853.45 1181.23 1877.84 1049.06 1946.87 1030.56C2015.91 1012.06 2103.12 1114.33 2141.98 1259.36C2180.84 1404.38 2156.45 1536.56 2087.41 1555.06Z" />
		<path id="Front leg" class="shp2" d="M1311 1952C1273.4 1952 1243 1884.28 1243 1800.5C1243 1716.72 1273.4 1649 1311 1649C1348.6 1649 1379 1716.72 1379 1800.5C1379 1884.28 1348.6 1952 1311 1952Z" />
		<path id="Back leg" class="shp2" d="M2033 1952C1995.4 1952 1965 1884.28 1965 1800.5C1965 1716.72 1995.4 1649 2033 1649C2070.6 1649 2101 1716.72 2101 1800.5C2101 1884.28 2070.6 1952 2033 1952Z" />
		<path id="Body" class="shp2" d="M1244 1427L2100 1427L2100 1827L1244 1827L1244 1427Z" />
		<path id="Head" class="shp2" d="M1355 1623C1136.01 1623 959 1481.52 959 1306.5C959 1131.48 1136.01 990 1355 990C1573.99 990 1751 1131.48 1751 1306.5C1751 1481.52 1573.99 1623 1355 1623Z" />
		<g id="Left ear">
			<path id="Left ear" class="shp2" d="M1623.46 891.33L1669.49 1063.1L1497.72 1017.07L1623.46 891.33Z" />
			<path id="Shape 1" class="shp2" d="M1624.16 1070.37L1668.59 1058.47L1693.18 1150.23L1648.74 1162.13L1624.16 1070.37Z" />
			<path id="Shape 2" class="shp2" d="M1534 1023L1649 1023L1649 1091L1534 1091L1534 1023Z" />
			<path id="Shape 3" class="shp2" d="M1644 1049L1661 1049L1661 1070L1644 1070L1644 1049Z" />
		</g>
		<g id="Right ear">
			<path id="Right ear" class="shp2" d="M1024.39 922.98L1164.48 1032.51L999.57 1099.07L1024.39 922.98Z" />
			<path id="Shape 4" class="shp2" d="M1002.14 1083.41L1078.38 1094.24L1062.76 1204.14L986.53 1193.31L1002.14 1083.41Z" />
			<path id="Shape 5" class="shp2" d="M1025 1044L1159 1044L1159 1095L1025 1095L1025 1044Z" />
		</g>
	</g>
</svg>